<?xml version="1.0" encoding="utf-8"?>
<!-- Svg Vector Icons : http://www.onlinewebfonts.com/icon -->
<!DOCTYPE svg PUBLIC "-//W3C//DTD SVG 1.1//EN" "http://www.w3.org/Graphics/SVG/1.1/DTD/svg11.dtd">
<svg version="1.1" xmlns="http://www.w3.org/2000/svg" xmlns:xlink="http://www.w3.org/1999/xlink" x="0px" y="0px" viewBox="0 0 1000 1000" enable-background="new 0 0 1000 1000" xml:space="preserve">
<metadata> Svg Vector Icons : http://www.onlinewebfonts.com/icon </metadata>
<g><g transform="translate(0.000000,511.000000) scale(0.100000,-0.100000)"><path d="M4655.4,4990.8c-462.7-48.5-870.3-167.5-1280.2-372.4c-1007-504.6-1712-1447.6-1919.2-2566.9c-57.3-299.7-57.3-1015.8-2.2-1289C1755.8-727,2828.8-2478.7,4613.6-4400c198.3-213.7,374.6-390,390-390c15.4,0,178.5,160.8,361.4,359.2C7198.2-2450,8337.3-552.9,8553.3,883.7c88.1,590.5,2.2,1282.4-233.6,1872.9C7727,4239.5,6222.1,5156.1,4655.4,4990.8z M5497.1,3318.5c561.9-158.6,1000.4-526.6,1251.5-1046.6c191.7-394.4,240.2-819.7,143.2-1227.3C6698,224.9,5946.6-414.1,5122.6-464.7c-1075.3-63.9-2022.7,821.9-2024.9,1899.3c-2.2,282,37.5,489.2,134.4,724.9c174.1,418.6,489.2,769,888,991.5c154.2,85.9,414.2,178.5,592.7,209.3C4895.6,3393.4,5312.1,3371.3,5497.1,3318.5z"/><path d="M4763.4,2833.7c-418.6-83.7-804.2-370.2-995.9-738.1c-134.4-257.8-167.5-412-156.4-716.1c6.6-202.7,19.8-286.4,68.3-418.7C3888.7,372.5,4474.8-15.3,5093.9,20c359.2,22,636.8,154.2,914.4,434.1c286.4,286.4,420.8,590.5,420.8,958.5c0,423.1-204.9,854.9-542,1134.7C5600.7,2785.2,5124.8,2906.4,4763.4,2833.7z"/></g></g>
</svg>