<?xml version="1.0" encoding="UTF-8" standalone="no"?>
<!-- Created with Inkscape (http://www.inkscape.org/) -->
<svg
   xmlns:dc="http://purl.org/dc/elements/1.1/"
   xmlns:cc="http://web.resource.org/cc/"
   xmlns:rdf="http://www.w3.org/1999/02/22-rdf-syntax-ns#"
   xmlns:svg="http://www.w3.org/2000/svg"
   xmlns="http://www.w3.org/2000/svg"
   xmlns:sodipodi="http://sodipodi.sourceforge.net/DTD/sodipodi-0.dtd"
   xmlns:inkscape="http://www.inkscape.org/namespaces/inkscape"
   id="svg2331"
   sodipodi:version="0.32"
   inkscape:version="0.45.1"
   width="4528.9541"
   height="2998.5681"
   version="1.0"
   sodipodi:docbase="C:\Users\Chris\Desktop\SVGs"
   sodipodi:docname="Chanel logo.svg"
   inkscape:output_extension="org.inkscape.output.svg.inkscape">
  <metadata
     id="metadata2336">
    <rdf:RDF>
      <cc:Work
         rdf:about="">
        <dc:format>image/svg+xml</dc:format>
        <dc:type
           rdf:resource="http://purl.org/dc/dcmitype/StillImage" />
      </cc:Work>
    </rdf:RDF>
  </metadata>
  <defs
     id="defs2334" />
  <sodipodi:namedview
     inkscape:window-height="974"
     inkscape:window-width="1280"
     inkscape:pageshadow="2"
     inkscape:pageopacity="0.0"
     guidetolerance="10.0"
     gridtolerance="10.0"
     objecttolerance="10.0"
     borderopacity="1.0"
     bordercolor="#666666"
     pagecolor="#ffffff"
     id="base"
     width="9000px"
     height="9000px"
     inkscape:zoom="0.0754"
     inkscape:cx="6061.1894"
     inkscape:cy="2950.1816"
     inkscape:window-x="-8"
     inkscape:window-y="-8"
     inkscape:current-layer="svg2331" />
  <path
     style="fill:#000000"
     d="M 323.95434,2998.3352 C 322.02934,2998.1149 315.50434,2997.4377 309.45434,2996.8303 C 254.22774,2991.2851 195.27344,2968.7007 148.93054,2935.3364 C 79.448645,2885.3132 30.485945,2812.4753 10.063045,2728.7539 C -0.7893552,2684.266 -2.9471552,2634.4229 3.9941448,2588.5709 C 22.604945,2465.6336 103.84414,2360.3291 216.53914,2313.064 C 244.66324,2301.2685 272.57554,2293.8096 305.45434,2289.3034 C 323.67984,2286.8056 368.06814,2286.793 386.45434,2289.2805 C 425.44794,2294.5561 458.49774,2304.3893 492.45434,2320.8185 C 529.81914,2338.8967 555.67654,2357.5111 586.97554,2388.8629 C 614.33864,2416.2722 631.23344,2439.0838 650.82274,2475.0707 L 654.98984,2482.7259 L 640.22204,2493.6494 C 619.87794,2508.6977 572.15654,2542.7472 556.61494,2553.3036 L 543.77554,2562.0245 L 538.49364,2550.5462 C 531.96334,2536.3549 527.31494,2527.9452 519.78624,2516.7017 C 489.70674,2471.78 441.73924,2439.6938 389.45434,2429.5206 C 361.78884,2424.1377 327.72914,2424.7372 300.45434,2431.0871 C 271.81444,2437.7549 240.71334,2452.713 216.95434,2471.2465 C 207.37744,2478.7171 189.75164,2496.1971 181.99634,2505.9154 C 140.15154,2558.3515 124.73834,2625.1536 139.08984,2691.8759 C 144.05864,2714.9766 156.91944,2745.1573 170.33674,2765.2035 C 205.84664,2818.2572 260.27644,2852.2471 321.92814,2859.8679 C 332.82774,2861.2153 359.08094,2861.2153 369.98054,2859.8679 C 424.57904,2853.1189 475.02834,2824.7513 509.50144,2781.4154 C 519.65424,2768.6525 526.72864,2757.6057 534.79764,2741.9154 C 538.33324,2735.0404 541.52144,2729.4154 541.88254,2729.4154 C 542.24374,2729.4154 567.38074,2747.155 597.74264,2768.8368 L 652.94614,2808.2582 L 647.35294,2818.8368 C 635.74374,2840.7938 615.77344,2868.3918 597.17234,2888.184 C 565.48204,2921.9036 534.61564,2944.8178 494.45434,2964.4386 C 459.76834,2981.3843 423.01204,2992.193 383.95434,2996.9325 C 375.19734,2997.9952 330.18084,2999.0475 323.95434,2998.3352 z M 795.95434,2639.4154 L 795.95434,2293.9154 L 862.95434,2293.9154 L 929.95434,2293.9154 L 929.95434,2417.9154 L 929.95434,2541.9154 L 1104.9543,2541.9154 L 1279.9543,2541.9154 L 1279.9543,2417.9154 L 1279.9543,2293.9154 L 1346.9543,2293.9154 L 1413.9543,2293.9154 L 1413.9543,2639.4154 L 1413.9543,2984.9154 L 1346.9543,2984.9154 L 1279.9543,2984.9154 L 1279.9543,2832.9154 L 1279.9543,2680.9154 L 1104.9543,2680.9154 L 929.95434,2680.9154 L 929.95434,2832.9154 L 929.95434,2984.9154 L 862.95434,2984.9154 L 795.95434,2984.9154 L 795.95434,2639.4154 z M 1549.3354,2923.6654 C 1564.271,2889.9779 1633.1828,2734.5031 1702.4727,2578.1659 L 1828.4543,2293.9164 L 1922.4543,2293.9265 L 2016.4543,2293.9366 L 2168.7433,2635.176 C 2252.5022,2822.8577 2321.8927,2978.3279 2322.9444,2980.6654 L 2324.8565,2984.9154 L 2244.6316,2984.9154 L 2164.4066,2984.9154 L 2133.4305,2916.4207 L 2102.4543,2847.9259 L 1923.1533,2848.1707 L 1743.8523,2848.4154 L 1713.2226,2916.6654 L 1682.5928,2984.9154 L 1602.3863,2984.9154 L 1522.1798,2984.9154 L 1549.3354,2923.6654 z M 2045.7776,2708.522 C 2045.2119,2706.0842 1923.4762,2433.9713 1922.9543,2433.978 C 1922.5826,2433.9828 1806.9675,2703.8094 1805.121,2708.9817 C 1804.9157,2709.5566 1851.1471,2709.9154 1925.4443,2709.9154 C 2028.0782,2709.9154 2046.0527,2709.7073 2045.7776,2708.522 z M 2432.9543,2639.4154 L 2432.9543,2293.9154 L 2527.2043,2293.9362 L 2621.4543,2293.957 L 2768.9543,2501.1215 L 2916.4543,2708.2861 L 2916.7067,2501.1007 L 2916.959,2293.9154 L 2984.4567,2293.9154 L 3051.9543,2293.9154 L 3051.9543,2639.424 L 3051.9543,2984.9326 L 2997.7876,2984.674 L 2943.6209,2984.4154 L 2756.5376,2724.7035 C 2653.6418,2581.8619 2569.1168,2464.9744 2568.7043,2464.9535 C 2568.2918,2464.9325 2567.9543,2581.9154 2567.9543,2724.9154 L 2567.9543,2984.9154 L 2500.4543,2984.9154 L 2432.9543,2984.9154 L 2432.9543,2639.4154 z M 3295.9543,2639.4154 L 3295.9543,2293.9154 L 3537.4543,2293.9154 L 3778.9543,2293.9154 L 3778.9543,2363.4154 L 3778.9543,2432.9154 L 3604.9543,2432.9154 L 3430.9543,2432.9154 L 3430.9543,2501.9154 L 3430.9543,2570.9154 L 3591.9543,2570.9154 L 3752.9543,2570.9154 L 3752.9543,2640.4154 L 3752.9543,2709.9154 L 3591.9543,2709.9154 L 3430.9543,2709.9154 L 3430.9543,2778.9154 L 3430.9543,2847.9154 L 3629.9543,2847.9154 L 3828.9543,2847.9154 L 3828.9543,2916.4154 L 3828.9543,2984.9154 L 3562.4543,2984.9154 L 3295.9543,2984.9154 L 3295.9543,2639.4154 z M 4017.9543,2639.4154 L 4017.9543,2293.9154 L 4085.4543,2293.9154 L 4152.9543,2293.9154 L 4152.9543,2570.9154 L 4152.9543,2847.9154 L 4340.9543,2847.9154 L 4528.9543,2847.9154 L 4528.9543,2916.4154 L 4528.9543,2984.9154 L 4273.4543,2984.9154 L 4017.9543,2984.9154 L 4017.9543,2639.4154 z "
     id="path2342" />
  <path
     style="fill:#000000"
     d="M 1704.4894,2118.1768 C 1560.2523,2111.5053 1399.6359,2067.7109 1270.1499,1999.7477 C 1170.7431,1947.5717 1091.9577,1889.1847 1009.4222,1806.5241 C 944.77774,1741.7819 897.08484,1682.1436 856.71464,1615.5685 L 839.04164,1586.4239 L 864.11374,1573.1264 C 912.96844,1547.2154 1135.6784,1433.1755 1137.4256,1433.1755 C 1138.401,1433.1755 1147.6019,1445.699 1157.8715,1461.0054 C 1273.9333,1633.9931 1455.5028,1746.5225 1667.9832,1777.1515 C 1705.1272,1782.5062 1816.8252,1781.6523 1857.2745,1775.7046 C 1902.2838,1769.0866 1956.2701,1756.813 1990.5606,1745.402 C 1992.7915,1744.6597 1988.5282,1737.7361 1978.7185,1726.1722 C 1902.7696,1636.6446 1833.5348,1513.7673 1794.584,1399.3737 C 1724.1266,1192.4471 1719.1107,970.32764 1780.1835,761.62804 C 1818.108,632.02984 1883.3772,506.23734 1966.0351,403.43904 C 1978.3501,388.12354 1988.426,374.61094 1988.426,373.41124 C 1988.426,369.33224 1923.9024,352.15744 1881.6118,344.97994 C 1816.2755,333.89074 1713.9908,332.51614 1654.9408,341.93334 C 1555.5839,357.77924 1454.7376,394.98994 1375.9343,444.88224 C 1288.1169,500.48204 1214.8868,571.93274 1156.4482,659.03544 L 1130.6452,697.49454 L 1097.8006,680.24984 C 1079.7364,670.76574 1012.6308,635.98934 948.67764,602.97034 C 884.72404,569.95114 832.20024,542.75974 831.95744,542.54544 C 830.94034,541.64784 870.97834,477.96724 887.45864,454.27064 C 937.49744,382.32324 1026.3507,287.03944 1091.998,234.93004 C 1263.6554,98.670743 1454.4889,21.930743 1669.3352,2.7652435 C 1709.1892,-0.79035654 1808.0112,-0.82175654 1846.4577,2.7082435 C 1982.8582,15.231643 2099.7792,48.303243 2220.5736,108.52674 L 2278.3027,137.30884 L 2297.642,126.30424 C 2328.8722,108.53294 2384.359,82.892043 2426.4993,66.756943 C 2544.7353,21.485443 2663.8122,-0.064156541 2795.375,0.00014345942 C 2887.2473,0.045043459 2963.8919,9.0721435 3047.0949,29.646943 C 3235.0683,76.129243 3395.3694,165.27494 3533.4845,300.13384 C 3608.3626,373.24684 3667.0436,447.89534 3714.4229,530.30904 L 3721.6034,542.79994 L 3604.7424,603.08754 C 3540.4686,636.24624 3473.233,671.05694 3455.3294,680.44504 L 3422.7783,697.51474 L 3398.1729,660.39774 C 3276.7691,477.26044 3078.1833,358.03314 2860.8179,337.77974 C 2796.4681,331.78344 2700.9143,337.30514 2642.832,350.37514 C 2612.9395,357.10204 2564.4107,370.96754 2564.4239,372.77804 C 2564.4306,373.72414 2572.3702,384.23334 2582.0671,396.13144 C 2706.63,548.96974 2784.4058,735.27754 2809.5354,941.01924 C 2815.5336,990.12574 2816.3332,1115.4987 2810.9579,1164.112 C 2788.2597,1369.4066 2710.6341,1558.8641 2586.7273,1711.3842 C 2558.6368,1745.9609 2559.8365,1743.5683 2568.8448,1747.0482 C 2573.0993,1748.692 2593.0078,1754.1993 2613.0863,1759.2866 C 2715.1323,1785.143 2824.9798,1788.796 2928.1207,1769.7632 C 3115.713,1735.1462 3284.665,1624.2005 3393.3317,1464.2736 C 3403.4375,1449.4004 3412.5635,1436.2345 3413.6115,1435.0145 C 3414.6594,1433.7955 3439.7089,1444.924 3469.2761,1459.7455 C 3527.8477,1489.1059 3711.3123,1584.0454 3713.2799,1586.0126 C 3716.5578,1589.2908 3658.0875,1676.0841 3622.2292,1721.1683 C 3588.2806,1763.8505 3499.2958,1852.7323 3456.7833,1886.4228 C 3303.1463,2008.1768 3130.7298,2082.6214 2940.8205,2109.2004 C 2722.7677,2139.7188 2491.8383,2098.8483 2303.9472,1996.485 L 2277.3927,1982.0187 L 2244.456,1999.445 C 2081.2691,2085.7857 1894.083,2126.9453 1704.4894,2118.1768 z M 2313.6885,1518.3567 C 2404.6291,1405.7863 2461.3711,1269.2358 2475.3545,1129.3054 C 2480.0482,1082.3412 2477.2587,986.67374 2469.9494,943.90934 C 2449.8357,826.23434 2406.7986,725.37304 2337.3724,633.20394 C 2324.2989,615.84784 2305.261,592.64644 2295.066,581.64554 L 2276.5292,561.64344 L 2259.3297,580.29324 C 2236.6579,604.87604 2198.876,655.03074 2179.8334,685.82204 C 2083.143,842.17164 2051.5732,1034.2538 2092.5197,1217.0715 C 2118.2866,1332.1158 2177.5286,1448.007 2257.366,1539.548 L 2275.7504,1560.628 L 2283.7965,1553.013 C 2288.2222,1548.8249 2301.6732,1533.2293 2313.6885,1518.3567 z "
     id="path2387" />
</svg>
