<svg xmlns="http://www.w3.org/2000/svg" xmlns:xlink="http://www.w3.org/1999/xlink" version="1.1" width="256" height="256" viewBox="0 0 256 256" xml:space="preserve">

<defs>
</defs>
<g style="stroke: none; stroke-width: 0; stroke-dasharray: none; stroke-linecap: butt; stroke-linejoin: miter; stroke-miterlimit: 10; fill: none; fill-rule: nonzero; opacity: 1;" transform="translate(1.4065934065934016 1.4065934065934016) scale(2.81 2.81)" >
	<path d="M 89 75.042 H 71.952 V 13.958 c 0 -5.527 -4.497 -10.024 -10.024 -10.024 H 23.657 H 10.024 C 4.497 3.934 0 8.43 0 13.958 c 0 0.552 0.448 1 1 1 h 10.048 v 61.084 c 0 5.527 4.497 10.024 10.024 10.024 h 58.904 C 85.503 86.066 90 81.569 90 76.042 C 90 75.489 89.553 75.042 89 75.042 z M 10.024 5.934 h 13.633 h 32.27 c -2.189 1.642 -3.688 4.157 -3.973 7.024 H 2.062 C 2.556 9.003 5.938 5.934 10.024 5.934 z M 21.072 84.066 c -4.424 0 -8.024 -3.6 -8.024 -8.024 V 14.958 h 39.856 c 0.553 0 1 -0.448 1 -1 c 0 -4.424 3.6 -8.024 8.023 -8.024 c 4.425 0 8.024 3.6 8.024 8.024 v 62.084 c 0 3.284 1.594 6.195 4.041 8.024 H 21.072 z M 79.976 84.066 c -0.266 0 -0.53 -0.014 -0.789 -0.04 c -0.087 -0.008 -0.171 -0.025 -0.257 -0.036 c -0.172 -0.023 -0.344 -0.045 -0.512 -0.078 c -0.099 -0.02 -0.196 -0.047 -0.294 -0.07 c -0.151 -0.036 -0.301 -0.071 -0.448 -0.116 c -0.102 -0.031 -0.202 -0.067 -0.302 -0.102 c -0.139 -0.048 -0.277 -0.096 -0.413 -0.151 c -0.1 -0.041 -0.198 -0.086 -0.296 -0.131 c -0.13 -0.059 -0.26 -0.12 -0.386 -0.186 c -0.097 -0.05 -0.191 -0.104 -0.286 -0.158 c -0.122 -0.07 -0.242 -0.143 -0.36 -0.219 c -0.092 -0.059 -0.182 -0.121 -0.272 -0.184 c -0.114 -0.081 -0.226 -0.165 -0.336 -0.251 c -0.085 -0.067 -0.17 -0.135 -0.252 -0.205 c -0.107 -0.092 -0.211 -0.188 -0.313 -0.285 c -0.077 -0.074 -0.155 -0.147 -0.23 -0.223 c -0.1 -0.103 -0.196 -0.211 -0.29 -0.319 c -0.068 -0.078 -0.138 -0.155 -0.203 -0.235 c -0.095 -0.118 -0.184 -0.241 -0.273 -0.365 c -0.056 -0.078 -0.115 -0.153 -0.168 -0.233 c -0.094 -0.14 -0.179 -0.286 -0.263 -0.433 c -0.04 -0.069 -0.084 -0.136 -0.122 -0.207 c -0.237 -0.44 -0.435 -0.905 -0.588 -1.39 c -0.021 -0.068 -0.036 -0.139 -0.056 -0.207 c -0.05 -0.176 -0.099 -0.353 -0.137 -0.534 c -0.019 -0.089 -0.031 -0.181 -0.047 -0.271 c -0.023 -0.131 -0.044 -0.262 -0.06 -0.394 h 15.917 C 87.444 80.996 84.062 84.066 79.976 84.066 z" style="stroke: none; stroke-width: 1; stroke-dasharray: none; stroke-linecap: butt; stroke-linejoin: miter; stroke-miterlimit: 10; fill: rgb(0,0,0); fill-rule: nonzero; opacity: 1;" transform=" matrix(1 0 0 1 0 0) " stroke-linecap="round" />
	<path d="M 50.575 30.072 c 0.968 -1.322 1.061 -3.024 0.241 -4.443 s -2.343 -2.185 -3.969 -2.013 c -0.901 0.1 -1.755 -0.395 -2.121 -1.224 c -0.661 -1.499 -2.089 -2.43 -3.727 -2.43 s -3.066 0.931 -3.727 2.43 c -0.367 0.83 -1.22 1.323 -2.122 1.224 c -1.638 -0.178 -3.149 0.595 -3.968 2.013 s -0.727 3.121 0.241 4.443 h 0 c 0.536 0.732 0.536 1.716 0 2.449 c -0.967 1.322 -1.06 3.024 -0.241 4.443 c 0.739 1.279 2.046 2.021 3.489 2.03 v 12.315 c 0 0.621 0.367 1.186 0.934 1.438 c 0.567 0.253 1.231 0.146 1.694 -0.27 l 3.749 -3.387 l 3.749 3.387 c 0.295 0.266 0.673 0.405 1.056 0.405 c 0.215 0 0.433 -0.044 0.638 -0.135 c 0.567 -0.253 0.935 -0.817 0.935 -1.438 v -12.31 c 1.401 -0.04 2.669 -0.786 3.39 -2.035 c 0.819 -1.419 0.727 -3.121 -0.241 -4.443 C 50.039 31.789 50.039 30.805 50.575 30.072 z M 42.104 47.348 c -0.602 -0.543 -1.508 -0.543 -2.109 0 l -3.322 3.001 V 39.452 c 0.247 0.202 0.465 0.443 0.6 0.75 c 0.661 1.499 2.089 2.43 3.727 2.43 s 3.066 -0.931 3.727 -2.43 c 0.154 -0.349 0.406 -0.62 0.7 -0.831 v 10.979 L 42.104 47.348 z M 48.962 33.703 c 0.5 0.683 0.546 1.528 0.122 2.261 c -0.423 0.733 -1.177 1.119 -2.02 1.025 c -1.774 -0.189 -3.448 0.773 -4.167 2.406 c -0.341 0.774 -1.051 1.237 -1.897 1.237 s -1.556 -0.462 -1.897 -1.237 c -0.659 -1.494 -2.118 -2.43 -3.719 -2.43 c -0.148 0 -0.298 0.008 -0.448 0.024 c -0.842 0.093 -1.596 -0.292 -2.02 -1.025 c -0.423 -0.733 -0.377 -1.579 0.123 -2.261 c 1.054 -1.439 1.054 -3.373 0 -4.812 c -0.5 -0.683 -0.546 -1.528 -0.123 -2.261 c 0.424 -0.733 1.179 -1.114 2.02 -1.025 c 1.773 0.192 3.448 -0.773 4.168 -2.406 c 0.341 -0.774 1.051 -1.237 1.897 -1.237 s 1.556 0.462 1.897 1.237 c 0.719 1.632 2.392 2.599 4.167 2.406 c 0.842 -0.09 1.597 0.292 2.02 1.025 c 0.424 0.733 0.378 1.579 -0.122 2.261 C 47.908 30.33 47.908 32.264 48.962 33.703 z" style="stroke: none; stroke-width: 1; stroke-dasharray: none; stroke-linecap: butt; stroke-linejoin: miter; stroke-miterlimit: 10; fill: rgb(0,0,0); fill-rule: nonzero; opacity: 1;" transform=" matrix(1 0 0 1 0 0) " stroke-linecap="round" />
	<path d="M 41 35.586 c -2.481 0 -4.5 -2.019 -4.5 -4.5 s 2.019 -4.5 4.5 -4.5 s 4.5 2.019 4.5 4.5 S 43.481 35.586 41 35.586 z M 41 28.586 c -1.378 0 -2.5 1.122 -2.5 2.5 s 1.122 2.5 2.5 2.5 s 2.5 -1.122 2.5 -2.5 S 42.378 28.586 41 28.586 z" style="stroke: none; stroke-width: 1; stroke-dasharray: none; stroke-linecap: butt; stroke-linejoin: miter; stroke-miterlimit: 10; fill: rgb(0,0,0); fill-rule: nonzero; opacity: 1;" transform=" matrix(1 0 0 1 0 0) " stroke-linecap="round" />
	<path d="M 58.459 63.461 H 22.657 c -0.552 0 -1 -0.447 -1 -1 s 0.448 -1 1 -1 h 35.802 c 0.553 0 1 0.447 1 1 S 59.012 63.461 58.459 63.461 z" style="stroke: none; stroke-width: 1; stroke-dasharray: none; stroke-linecap: butt; stroke-linejoin: miter; stroke-miterlimit: 10; fill: rgb(0,0,0); fill-rule: nonzero; opacity: 1;" transform=" matrix(1 0 0 1 0 0) " stroke-linecap="round" />
	<path d="M 58.459 73.461 H 45 c -0.552 0 -1 -0.447 -1 -1 s 0.448 -1 1 -1 h 13.459 c 0.553 0 1 0.447 1 1 S 59.012 73.461 58.459 73.461 z" style="stroke: none; stroke-width: 1; stroke-dasharray: none; stroke-linecap: butt; stroke-linejoin: miter; stroke-miterlimit: 10; fill: rgb(0,0,0); fill-rule: nonzero; opacity: 1;" transform=" matrix(1 0 0 1 0 0) " stroke-linecap="round" />
</g>
</svg>